<svg width="102" height="106" viewBox="0 0 102 106" fill="none" xmlns="http://www.w3.org/2000/svg" xmlns:xlink="http://www.w3.org/1999/xlink">
<path d="M77.75,44.25C74.069,44.323 70.467,43.18 67.5,41C66.944,40.631 66.321,40.376 65.665,40.252C65.01,40.127 64.336,40.135 63.684,40.275C63.032,40.414 62.414,40.683 61.867,41.065C61.32,41.448 60.855,41.935 60.5,42.5C60.106,42.969 59.811,43.513 59.635,44.1C59.459,44.687 59.404,45.303 59.474,45.912C59.544,46.52 59.738,47.108 60.043,47.639C60.349,48.17 60.759,48.633 61.25,49C64.467,51.258 68.134,52.793 72,53.5L72,59C72,60.326 72.527,61.598 73.464,62.536C74.402,63.473 75.674,64 77,64C78.326,64 79.598,63.473 80.535,62.536C81.473,61.598 82,60.326 82,59L82,53.5C84.742,53.096 87.33,51.974 89.5,50.25C91.067,49.1 92.338,47.593 93.207,45.854C94.077,44.115 94.52,42.194 94.5,40.25C94.5,31 86,28 78.75,26.5C71.5,25 70,23.25 70,22C70,20.75 70.5,20.5 71.25,19.75C72.629,19.009 74.187,18.662 75.75,18.75C78.655,18.725 81.51,19.504 84,21C84.506,21.413 85.096,21.711 85.729,21.873C86.362,22.035 87.022,22.057 87.664,21.938C88.307,21.819 88.915,21.562 89.448,21.184C89.981,20.806 90.425,20.317 90.75,19.75C91.178,19.239 91.495,18.643 91.678,18.002C91.86,17.36 91.906,16.687 91.812,16.027C91.718,15.367 91.485,14.733 91.13,14.169C90.775,13.604 90.304,13.121 89.75,12.75C87.373,11.283 84.746,10.266 82,9.75L82,4C82,2.674 81.473,1.402 80.535,0.464C79.598,-0.473 78.326,-1 77,-1C75.674,-1 74.402,-0.473 73.464,0.464C72.527,1.402 72,2.674 72,4L72,9.5C64.5,10.75 59.5,15.75 59.5,22.5C59.5,29.25 67.75,34.75 75.75,36.25C83.75,37.75 84,39.5 84,40.75C84,42 81.25,44.25 77.75,44.25Z" fill="#FF0000"/>
<path d="M97.5,73.25C96.111,72.13 94.507,71.308 92.786,70.835C91.066,70.361 89.266,70.248 87.5,70.5L62.75,75C62.763,73.458 62.459,71.931 61.857,70.511C61.255,69.092 60.368,67.812 59.25,66.75L41.5,49L4.5,49C3.174,49 1.902,49.527 0.964,50.464C0.027,51.402 -0.5,52.674 -0.5,54L-0.5,76.5C-0.5,77.826 0.027,79.098 0.964,80.036C1.902,80.973 3.174,81.5 4.5,81.5L12.75,81.5L40.75,104.25L91.75,95C94.054,94.55 96.185,93.46 97.899,91.856C99.612,90.251 100.839,88.196 101.439,85.927C102.039,83.657 101.988,81.264 101.291,79.022C100.595,76.78 99.281,74.78 97.5,73.25ZM90,85.25L43.25,93.75L17,72L17,59L37.5,59L52.25,73.75C52.648,74.148 52.871,74.687 52.871,75.25C52.871,75.813 52.648,76.352 52.25,76.75C51.852,77.148 51.313,77.371 50.75,77.371C50.187,77.371 49.648,77.148 49.25,76.75L40.5,68C39.537,67.278 38.346,66.927 37.146,67.013C35.945,67.098 34.816,67.613 33.964,68.464C33.113,69.316 32.598,70.445 32.513,71.646C32.427,72.846 32.778,74.037 33.5,75L42.25,83.75C43.341,84.899 44.661,85.805 46.126,86.408C47.591,87.011 49.167,87.298 50.75,87.25C52.281,87.243 53.8,86.99 55.25,86.5L89.25,80.5C89.956,80.401 90.673,80.58 91.25,81C91.495,81.219 91.69,81.489 91.819,81.792C91.949,82.094 92.011,82.421 92,82.75C92.012,83.335 91.818,83.905 91.453,84.362C91.087,84.819 90.573,85.133 90,85.25Z" fill="#FF0000"/>
</svg>
