<svg width="66" height="66" viewBox="0 0 66 66" fill="none" xmlns="http://www.w3.org/2000/svg" xmlns:xlink="http://www.w3.org/1999/xlink">
<path d="M32,-0.5C26.355,-0.498 20.808,0.973 15.904,3.769C11.001,6.566 6.91,10.591 4.034,15.448C1.159,20.306 -0.403,25.829 -0.496,31.473C-0.589,37.117 0.79,42.688 3.503,47.638L0.833,56.986C0.588,57.844 0.576,58.751 0.8,59.614C1.023,60.477 1.474,61.265 2.104,61.896C2.735,62.526 3.523,62.977 4.386,63.2C5.249,63.424 6.156,63.413 7.014,63.168L16.362,60.497C20.707,62.881 25.539,64.239 30.489,64.47C35.439,64.7 40.376,63.795 44.923,61.824C49.47,59.853 53.506,56.869 56.723,53.099C59.939,49.329 62.251,44.874 63.482,40.074C64.712,35.274 64.829,30.255 63.823,25.403C62.817,20.551 60.714,15.993 57.677,12.078C54.639,8.162 50.746,4.994 46.296,2.814C41.845,0.634 36.956,-0.5 32,-0.5ZM39.539,52C39.53,52.007 39.513,52 39.5,52C35.885,52 32.306,51.287 28.967,49.903C25.628,48.518 22.595,46.489 20.041,43.932C17.486,41.374 15.462,38.338 14.082,34.997C12.702,31.656 11.995,28.076 12,24.461C12.011,21.485 13.201,18.634 15.31,16.533C17.418,14.431 20.273,13.251 23.25,13.25C24.07,13.251 24.876,13.468 25.585,13.88C26.294,14.292 26.883,14.883 27.291,15.595L30.944,21.989C31.384,22.76 31.611,23.635 31.602,24.523C31.592,25.411 31.347,26.28 30.89,27.042L28.668,30.745C29.767,32.651 31.349,34.233 33.255,35.332L36.958,33.11C37.72,32.653 38.589,32.408 39.477,32.398C40.365,32.389 41.24,32.616 42.011,33.056L48.405,36.709C49.117,37.117 49.708,37.705 50.12,38.415C50.532,39.124 50.749,39.93 50.75,40.75C50.749,43.727 49.568,46.581 47.467,48.69C45.366,50.798 42.515,51.988 39.539,52Z" fill="#000000"/>
<path d="M34.641,40.331C34.295,40.539 33.904,40.66 33.502,40.683C33.099,40.707 32.697,40.633 32.329,40.468C28.419,38.711 25.289,35.581 23.533,31.671C23.367,31.303 23.293,30.901 23.317,30.499C23.341,30.096 23.462,29.705 23.669,29.359L26.603,24.469L23.051,18.253C21.434,18.304 19.9,18.98 18.771,20.139C17.642,21.298 17.008,22.85 17,24.468C16.996,27.426 17.575,30.355 18.704,33.088C19.832,35.822 21.489,38.306 23.579,40.399C25.669,42.491 28.15,44.152 30.882,45.284C33.614,46.417 36.543,47 39.5,47L39.532,47C41.15,46.993 42.702,46.358 43.861,45.229C45.02,44.101 45.696,42.566 45.747,40.949L39.531,37.397L34.641,40.331Z" fill="#000000"/>
</svg>
