<svg width="106" height="72" viewBox="0 0 106 72" fill="none" xmlns="http://www.w3.org/2000/svg" xmlns:xlink="http://www.w3.org/1999/xlink">
<path d="M82,71.25C88.213,71.25 93.25,66.213 93.25,60C93.25,53.787 88.213,48.75 82,48.75C75.787,48.75 70.75,53.787 70.75,60C70.75,66.213 75.787,71.25 82,71.25Z" fill="#FF0000"/>
<path d="M22,71.25C28.213,71.25 33.25,66.213 33.25,60C33.25,53.787 28.213,48.75 22,48.75C15.787,48.75 10.75,53.787 10.75,60C10.75,66.213 15.787,71.25 22,71.25Z" fill="#FF0000"/>
<path d="M103.75,35.25L88.75,16.5C88,15.375 86.875,15 85.75,15L67,15L67,3.75C67,1.5 65.5,0 63.25,0L3.25,0C1,0 -0.5,1.5 -0.5,3.75L-0.5,60C-0.5,62.25 1,63.75 3.25,63.75L3.625,63.75C3.25,62.625 3.25,61.125 3.25,60C3.25,49.5 11.5,41.25 22,41.25C32.5,41.25 40.75,49.5 40.75,60C40.75,61.125 40.75,62.625 40.375,63.75L63.25,63.75L63.625,63.75C63.25,62.625 63.25,61.125 63.25,60C63.25,49.5 71.5,41.25 82,41.25C92.5,41.25 100.75,49.5 100.75,60C100.75,61.125 100.75,62.625 100.375,63.75L100.75,63.75C103,63.75 104.5,62.25 104.5,60L104.5,37.5C104.5,36.75 104.125,36 103.75,35.25Z" fill="#FF0000"/>
</svg>
