<svg width="34" height="34" viewBox="0 0 34 34" fill="none" xmlns="http://www.w3.org/2000/svg" xmlns:xlink="http://www.w3.org/1999/xlink">
<path d="M26.207,22.708C25.429,21.924 24.162,21.919 23.378,22.697C22.595,23.476 22.59,24.742 23.368,25.526L26.207,22.708ZM30.581,32.791C31.359,33.574 32.625,33.579 33.409,32.801C34.193,32.022 34.198,30.756 33.419,29.972L30.581,32.791ZM23.368,25.526L30.581,32.791L33.419,29.972L26.207,22.708L23.368,25.526ZM26.667,14.715C26.667,20.974 21.593,26.048 15.333,26.048L15.333,30.048C23.802,30.048 30.667,23.183 30.667,14.715L26.667,14.715ZM15.333,26.048C9.074,26.048 4,20.974 4,14.715L0,14.715C0,23.183 6.865,30.048 15.333,30.048L15.333,26.048ZM4,14.715C4,8.456 9.074,3.381 15.333,3.381L15.333,-0.619C6.865,-0.619 0,6.246 0,14.715L4,14.715ZM15.333,3.381C21.593,3.381 26.667,8.456 26.667,14.715L30.667,14.715C30.667,6.246 23.802,-0.619 15.333,-0.619L15.333,3.381Z" fill="#000000"/>
</svg>
