<svg width="88" height="120" viewBox="0 0 88 120" fill="none" xmlns="http://www.w3.org/2000/svg" xmlns:xlink="http://www.w3.org/1999/xlink">
<path d="M63.522,89.669L63.522,108.184L72.393,111.876L72.393,84.817C69.606,86.728 66.634,88.353 63.522,89.669ZM15.608,84.817L15.608,111.691L24.478,107.999L24.478,89.669C21.366,88.353 18.394,86.728 15.608,84.817ZM44,93.608C39.811,93.61 35.638,93.089 31.579,92.056L31.579,120L44,114.83L56.421,120L56.421,92.056C52.362,93.088 48.189,93.61 44,93.608ZM44,0C20.15,0 0.747,19.403 0.747,43.254C0.747,67.104 20.15,86.507 44,86.507C67.85,86.507 87.254,67.104 87.254,43.253C87.254,19.403 67.85,0 44,0ZM44,77.367C25.092,77.367 9.709,61.984 9.709,43.077C9.709,24.169 25.092,8.786 44,8.786C62.908,8.786 78.29,24.169 78.29,43.077C78.29,61.985 62.908,77.367 44,77.367ZM44,15.886C29.007,15.886 16.81,28.084 16.81,43.077C16.81,58.07 29.007,70.266 44,70.266C58.992,70.266 71.19,58.069 71.19,43.076C71.19,28.084 58.993,15.886 44,15.886ZM55.175,58.945L44,53.07L32.825,58.945L34.959,46.502L25.918,37.689L38.413,35.874L44,24.552L49.587,35.874L62.082,37.689L53.041,46.502L55.175,58.945Z" fill="#FF0000"/>
</svg>
